<svg width="374" height="16" viewBox="0 0 374 16" fill="none" xmlns="http://www.w3.org/2000/svg">
<line y1="7.5" x2="374" y2="7.5" stroke="#24272C"/>
<rect width="48" height="15" transform="translate(163 0.5)" fill="#FEFEFE"/>
<path d="M178.955 8.264C178.955 7.368 179.107 6.6 179.411 5.96C179.723 5.312 180.167 4.812 180.743 4.46C181.327 4.108 182.027 3.932 182.843 3.932C183.635 3.932 184.323 4.108 184.907 4.46C185.491 4.812 185.939 5.312 186.251 5.96C186.571 6.6 186.731 7.364 186.731 8.252C186.731 9.148 186.571 9.92 186.251 10.568C185.931 11.216 185.479 11.72 184.895 12.08C184.319 12.432 183.635 12.608 182.843 12.608C182.027 12.608 181.331 12.432 180.755 12.08C180.179 11.72 179.735 11.216 179.423 10.568C179.111 9.92 178.955 9.152 178.955 8.264ZM179.999 8.264C179.999 9.352 180.239 10.204 180.719 10.82C181.199 11.428 181.907 11.732 182.843 11.732C183.739 11.732 184.435 11.428 184.931 10.82C185.435 10.204 185.687 9.352 185.687 8.264C185.687 7.168 185.439 6.32 184.943 5.72C184.447 5.112 183.747 4.808 182.843 4.808C181.907 4.808 181.199 5.112 180.719 5.72C180.239 6.32 179.999 7.168 179.999 8.264ZM188.536 12.5V4.04H191.992C192.88 4.04 193.568 4.252 194.056 4.676C194.544 5.092 194.788 5.676 194.788 6.428C194.788 6.924 194.676 7.348 194.452 7.7C194.236 8.044 193.928 8.308 193.528 8.492C193.136 8.676 192.676 8.768 192.148 8.768L192.364 8.612H192.604C192.932 8.612 193.224 8.692 193.48 8.852C193.744 9.012 193.952 9.28 194.104 9.656L195.304 12.5H194.212L193.06 9.704C192.924 9.344 192.72 9.112 192.448 9.008C192.176 8.896 191.836 8.84 191.428 8.84H189.532V12.5H188.536ZM189.532 8.06H191.848C192.488 8.06 192.972 7.924 193.3 7.652C193.636 7.372 193.804 6.972 193.804 6.452C193.804 5.932 193.636 5.536 193.3 5.264C192.972 4.992 192.488 4.856 191.848 4.856H189.532V8.06Z" fill="#24272C"/>
</svg>
